<mxfile host="app.diagrams.net" agent="Mozilla/5.0 (Macintosh; Intel Mac OS X 10_15_7) AppleWebKit/537.36 (KHTML, like Gecko) Chrome/140.0.0.0 Safari/537.36" version="28.2.7">
  <diagram name="Page-1" id="e7e014a7-5840-1c2e-5031-d8a46d1fe8dd">
    <mxGraphModel dx="976" dy="664" grid="1" gridSize="10" guides="1" tooltips="1" connect="1" arrows="1" fold="1" page="1" pageScale="1" pageWidth="1169" pageHeight="826" background="none" math="0" shadow="0">
      <root>
        <mxCell id="0" />
        <mxCell id="1" parent="0" />
        <mxCell id="DvdlsZeEVbT4rl_nIu9P-41" value="&amp;lt;&amp;lt;device&amp;gt;&amp;gt;\nDispositivo do Usuário" style="verticalAlign=top;align=left;spacingTop=8;spacingLeft=2;spacingRight=12;shape=cube;size=10;direction=south;fontStyle=4;html=1;whiteSpace=wrap;" vertex="1" parent="1">
          <mxGeometry x="60" y="40" width="380" height="290" as="geometry" />
        </mxCell>
        <mxCell id="DvdlsZeEVbT4rl_nIu9P-42" value="&amp;lt;&amp;lt;server&amp;gt;&amp;gt;\nServidor de Aplicação" style="verticalAlign=top;align=left;spacingTop=8;spacingLeft=2;spacingRight=12;shape=cube;size=10;direction=south;fontStyle=4;html=1;whiteSpace=wrap;" vertex="1" parent="1">
          <mxGeometry x="500" y="400" width="290" height="220" as="geometry" />
        </mxCell>
        <mxCell id="DvdlsZeEVbT4rl_nIu9P-43" value="&amp;lt;&amp;lt;database&amp;gt;&amp;gt;\nServidor de Banco de Dados" style="verticalAlign=top;align=left;spacingTop=8;spacingLeft=2;spacingRight=12;shape=cube;size=10;direction=south;fontStyle=4;html=1;whiteSpace=wrap;" vertex="1" parent="1">
          <mxGeometry x="590" y="50" width="330" height="270" as="geometry" />
        </mxCell>
        <mxCell id="DvdlsZeEVbT4rl_nIu9P-47" value="&amp;lt;&amp;lt;artifact&amp;gt;&amp;gt;\nNavegador Web" style="html=1;dropTarget=0;whiteSpace=wrap;" vertex="1" parent="1">
          <mxGeometry x="150" y="160" width="180" height="90" as="geometry" />
        </mxCell>
        <mxCell id="DvdlsZeEVbT4rl_nIu9P-48" value="" style="shape=module;jettyWidth=8;jettyHeight=4;" vertex="1" parent="DvdlsZeEVbT4rl_nIu9P-47">
          <mxGeometry x="1" width="20" height="20" relative="1" as="geometry">
            <mxPoint x="-27" y="7" as="offset" />
          </mxGeometry>
        </mxCell>
        <mxCell id="DvdlsZeEVbT4rl_nIu9P-51" value="&amp;lt;&amp;lt;artifact&amp;gt;&amp;gt;\nAplicação Web (olimpiadas.war)" style="html=1;dropTarget=0;whiteSpace=wrap;" vertex="1" parent="1">
          <mxGeometry x="540" y="465" width="180" height="90" as="geometry" />
        </mxCell>
        <mxCell id="DvdlsZeEVbT4rl_nIu9P-52" value="" style="shape=module;jettyWidth=8;jettyHeight=4;" vertex="1" parent="DvdlsZeEVbT4rl_nIu9P-51">
          <mxGeometry x="1" width="20" height="20" relative="1" as="geometry">
            <mxPoint x="-27" y="7" as="offset" />
          </mxGeometry>
        </mxCell>
        <mxCell id="DvdlsZeEVbT4rl_nIu9P-53" value="&amp;lt;&amp;lt;artifact&amp;gt;&amp;gt;\nBanco de Dados (PostgreSQL)" style="html=1;dropTarget=0;whiteSpace=wrap;" vertex="1" parent="1">
          <mxGeometry x="665" y="150" width="180" height="90" as="geometry" />
        </mxCell>
        <mxCell id="DvdlsZeEVbT4rl_nIu9P-54" value="" style="shape=module;jettyWidth=8;jettyHeight=4;" vertex="1" parent="DvdlsZeEVbT4rl_nIu9P-53">
          <mxGeometry x="1" width="20" height="20" relative="1" as="geometry">
            <mxPoint x="-27" y="7" as="offset" />
          </mxGeometry>
        </mxCell>
        <mxCell id="DvdlsZeEVbT4rl_nIu9P-56" style="edgeStyle=orthogonalEdgeStyle;rounded=0;orthogonalLoop=1;jettySize=auto;html=1;entryX=0;entryY=0;entryDx=115;entryDy=290;entryPerimeter=0;" edge="1" parent="1" source="DvdlsZeEVbT4rl_nIu9P-41" target="DvdlsZeEVbT4rl_nIu9P-42">
          <mxGeometry relative="1" as="geometry" />
        </mxCell>
        <mxCell id="DvdlsZeEVbT4rl_nIu9P-57" style="edgeStyle=orthogonalEdgeStyle;rounded=0;orthogonalLoop=1;jettySize=auto;html=1;entryX=0;entryY=0;entryDx=270;entryDy=170;entryPerimeter=0;" edge="1" parent="1" source="DvdlsZeEVbT4rl_nIu9P-42" target="DvdlsZeEVbT4rl_nIu9P-43">
          <mxGeometry relative="1" as="geometry" />
        </mxCell>
      </root>
    </mxGraphModel>
  </diagram>
</mxfile>
